<svg width="36" height="36" viewBox="0 0 36 36" fill="none" xmlns="http://www.w3.org/2000/svg">
<g id="access_alarms_24px">
<path id="icon/device/access_alarms_24px" fill-rule="evenodd" clip-rule="evenodd" d="M10.7549 6.15945L6.14989 9.89278C5.51989 10.4032 4.57489 10.3303 4.04989 9.7032C3.50989 9.0907 3.59989 8.17195 4.22989 7.64695L8.84989 3.91362C9.47989 3.4032 10.4249 3.47612 10.9499 4.1032C11.4899 4.7157 11.3999 5.63445 10.7549 6.15945ZM31.7699 7.64695L27.1499 3.91362C26.5199 3.4032 25.5749 3.47612 25.0349 4.1032C24.5099 4.7157 24.5999 5.63445 25.2299 6.15945L29.8349 9.89278C30.4649 10.4032 31.4099 10.3303 31.9499 9.7032C32.4899 9.0907 32.3999 8.17195 31.7699 7.64695ZM23.8049 22.5802L18.7499 19.6636V13.0573C18.7499 12.474 18.2699 12.0073 17.6699 12.0073H17.5799C16.9799 12.0073 16.4999 12.474 16.4999 13.0573V19.9406C16.4999 20.4511 16.7699 20.9323 17.2349 21.1948L22.7099 24.3886C23.2199 24.6802 23.8799 24.5344 24.1799 24.0386C24.4949 23.5281 24.3299 22.8719 23.8049 22.5802ZM17.9999 6.17397C10.5449 6.17397 4.49988 12.0511 4.49988 19.299C4.49988 26.5469 10.5449 32.424 17.9999 32.424C25.4549 32.424 31.4999 26.5469 31.4999 19.299C31.4999 12.0511 25.4549 6.17397 17.9999 6.17397ZM7.49988 19.299C7.49988 24.9281 12.2099 29.5073 17.9999 29.5073C23.7899 29.5073 28.4999 24.9281 28.4999 19.299C28.4999 13.6698 23.7899 9.09063 17.9999 9.09063C12.2099 9.09063 7.49988 13.6698 7.49988 19.299Z" fill="#CBE723"/>
</g>
</svg>
